<mxfile host="Electron" agent="Mozilla/5.0 (Windows NT 10.0; Win64; x64) AppleWebKit/537.36 (KHTML, like Gecko) draw.io/25.0.2 Chrome/128.0.6613.186 Electron/32.2.5 Safari/537.36" version="25.0.2">
  <diagram name="Page-1" id="9f46799a-70d6-7492-0946-bef42562c5a5">
    <mxGraphModel dx="1434" dy="1686" grid="1" gridSize="10" guides="1" tooltips="1" connect="1" arrows="1" fold="1" page="1" pageScale="1" pageWidth="1100" pageHeight="850" background="none" math="0" shadow="0">
      <root>
        <mxCell id="0" />
        <mxCell id="1" parent="0" />
        <mxCell id="1JNQ6iAQLQbl-ibyV2LE-4" value="Event" style="swimlane;html=1;fontStyle=1;align=center;verticalAlign=middle;childLayout=stackLayout;horizontal=1;startSize=26;horizontalStack=0;resizeParent=1;resizeLast=0;collapsible=1;marginBottom=0;swimlaneFillColor=#ffffff;rounded=0;shadow=0;comic=0;labelBackgroundColor=none;strokeWidth=3;fillColor=#d5e8d4;fontFamily=Verdana;fontSize=14;strokeColor=#82b366;" parent="1" vertex="1">
          <mxGeometry x="240" y="-546" width="200" height="550" as="geometry" />
        </mxCell>
        <mxCell id="1JNQ6iAQLQbl-ibyV2LE-14" value="+ id: string" style="text;html=1;strokeColor=none;fillColor=none;align=left;verticalAlign=top;spacingLeft=4;spacingRight=4;whiteSpace=wrap;overflow=hidden;rotatable=0;points=[[0,0.5],[1,0.5]];portConstraint=eastwest;" parent="1JNQ6iAQLQbl-ibyV2LE-4" vertex="1">
          <mxGeometry y="26" width="200" height="26" as="geometry" />
        </mxCell>
        <mxCell id="1JNQ6iAQLQbl-ibyV2LE-6" value="+ title: string" style="text;html=1;strokeColor=none;fillColor=none;align=left;verticalAlign=top;spacingLeft=4;spacingRight=4;whiteSpace=wrap;overflow=hidden;rotatable=0;points=[[0,0.5],[1,0.5]];portConstraint=eastwest;" parent="1JNQ6iAQLQbl-ibyV2LE-4" vertex="1">
          <mxGeometry y="52" width="200" height="28" as="geometry" />
        </mxCell>
        <mxCell id="hfIGhS6BqL0liH2l2tpk-1" value="+ event_category: string" style="text;html=1;strokeColor=none;fillColor=none;align=left;verticalAlign=top;spacingLeft=4;spacingRight=4;whiteSpace=wrap;overflow=hidden;rotatable=0;points=[[0,0.5],[1,0.5]];portConstraint=eastwest;" parent="1JNQ6iAQLQbl-ibyV2LE-4" vertex="1">
          <mxGeometry y="80" width="200" height="26" as="geometry" />
        </mxCell>
        <mxCell id="1JNQ6iAQLQbl-ibyV2LE-18" value="+ about_event: string" style="text;html=1;strokeColor=none;fillColor=none;align=left;verticalAlign=top;spacingLeft=4;spacingRight=4;whiteSpace=wrap;overflow=hidden;rotatable=0;points=[[0,0.5],[1,0.5]];portConstraint=eastwest;" parent="1JNQ6iAQLQbl-ibyV2LE-4" vertex="1">
          <mxGeometry y="106" width="200" height="26" as="geometry" />
        </mxCell>
        <mxCell id="1JNQ6iAQLQbl-ibyV2LE-17" value="+ image: string" style="text;html=1;strokeColor=none;fillColor=none;align=left;verticalAlign=top;spacingLeft=4;spacingRight=4;whiteSpace=wrap;overflow=hidden;rotatable=0;points=[[0,0.5],[1,0.5]];portConstraint=eastwest;" parent="1JNQ6iAQLQbl-ibyV2LE-4" vertex="1">
          <mxGeometry y="132" width="200" height="26" as="geometry" />
        </mxCell>
        <mxCell id="1JNQ6iAQLQbl-ibyV2LE-7" value="+ start_date: datetime" style="text;html=1;strokeColor=none;fillColor=none;align=left;verticalAlign=top;spacingLeft=4;spacingRight=4;whiteSpace=wrap;overflow=hidden;rotatable=0;points=[[0,0.5],[1,0.5]];portConstraint=eastwest;" parent="1JNQ6iAQLQbl-ibyV2LE-4" vertex="1">
          <mxGeometry y="158" width="200" height="26" as="geometry" />
        </mxCell>
        <mxCell id="1JNQ6iAQLQbl-ibyV2LE-8" value="+ end_date: datetime" style="text;html=1;strokeColor=none;fillColor=none;align=left;verticalAlign=top;spacingLeft=4;spacingRight=4;whiteSpace=wrap;overflow=hidden;rotatable=0;points=[[0,0.5],[1,0.5]];portConstraint=eastwest;" parent="1JNQ6iAQLQbl-ibyV2LE-4" vertex="1">
          <mxGeometry y="184" width="200" height="26" as="geometry" />
        </mxCell>
        <mxCell id="zpDkCe3_2rLUsq9SZKUm-1" value="+ registration_start_date: datetime" style="text;html=1;strokeColor=none;fillColor=none;align=left;verticalAlign=top;spacingLeft=4;spacingRight=4;whiteSpace=wrap;overflow=hidden;rotatable=0;points=[[0,0.5],[1,0.5]];portConstraint=eastwest;" vertex="1" parent="1JNQ6iAQLQbl-ibyV2LE-4">
          <mxGeometry y="210" width="200" height="26" as="geometry" />
        </mxCell>
        <mxCell id="zpDkCe3_2rLUsq9SZKUm-2" value="+ registration_end_date: datetime" style="text;html=1;strokeColor=none;fillColor=none;align=left;verticalAlign=top;spacingLeft=4;spacingRight=4;whiteSpace=wrap;overflow=hidden;rotatable=0;points=[[0,0.5],[1,0.5]];portConstraint=eastwest;" vertex="1" parent="1JNQ6iAQLQbl-ibyV2LE-4">
          <mxGeometry y="236" width="200" height="26" as="geometry" />
        </mxCell>
        <mxCell id="1JNQ6iAQLQbl-ibyV2LE-21" value="+ province: string" style="text;html=1;strokeColor=none;fillColor=none;align=left;verticalAlign=top;spacingLeft=4;spacingRight=4;whiteSpace=wrap;overflow=hidden;rotatable=0;points=[[0,0.5],[1,0.5]];portConstraint=eastwest;" parent="1JNQ6iAQLQbl-ibyV2LE-4" vertex="1">
          <mxGeometry y="262" width="200" height="26" as="geometry" />
        </mxCell>
        <mxCell id="1JNQ6iAQLQbl-ibyV2LE-26" value="+ city: string" style="text;html=1;strokeColor=none;fillColor=none;align=left;verticalAlign=top;spacingLeft=4;spacingRight=4;whiteSpace=wrap;overflow=hidden;rotatable=0;points=[[0,0.5],[1,0.5]];portConstraint=eastwest;" parent="1JNQ6iAQLQbl-ibyV2LE-4" vertex="1">
          <mxGeometry y="288" width="200" height="26" as="geometry" />
        </mxCell>
        <mxCell id="1JNQ6iAQLQbl-ibyV2LE-25" value="+ neighborhood: string" style="text;html=1;strokeColor=none;fillColor=none;align=left;verticalAlign=top;spacingLeft=4;spacingRight=4;whiteSpace=wrap;overflow=hidden;rotatable=0;points=[[0,0.5],[1,0.5]];portConstraint=eastwest;" parent="1JNQ6iAQLQbl-ibyV2LE-4" vertex="1">
          <mxGeometry y="314" width="200" height="26" as="geometry" />
        </mxCell>
        <mxCell id="zpDkCe3_2rLUsq9SZKUm-3" value="+ postal_address: string" style="text;html=1;strokeColor=none;fillColor=none;align=left;verticalAlign=top;spacingLeft=4;spacingRight=4;whiteSpace=wrap;overflow=hidden;rotatable=0;points=[[0,0.5],[1,0.5]];portConstraint=eastwest;" vertex="1" parent="1JNQ6iAQLQbl-ibyV2LE-4">
          <mxGeometry y="340" width="200" height="26" as="geometry" />
        </mxCell>
        <mxCell id="zpDkCe3_2rLUsq9SZKUm-4" value="+ postal_code: string" style="text;html=1;strokeColor=none;fillColor=none;align=left;verticalAlign=top;spacingLeft=4;spacingRight=4;whiteSpace=wrap;overflow=hidden;rotatable=0;points=[[0,0.5],[1,0.5]];portConstraint=eastwest;" vertex="1" parent="1JNQ6iAQLQbl-ibyV2LE-4">
          <mxGeometry y="366" width="200" height="26" as="geometry" />
        </mxCell>
        <mxCell id="1JNQ6iAQLQbl-ibyV2LE-24" value="+ full_description: string" style="text;html=1;strokeColor=none;fillColor=none;align=left;verticalAlign=top;spacingLeft=4;spacingRight=4;whiteSpace=wrap;overflow=hidden;rotatable=0;points=[[0,0.5],[1,0.5]];portConstraint=eastwest;" parent="1JNQ6iAQLQbl-ibyV2LE-4" vertex="1">
          <mxGeometry y="392" width="200" height="26" as="geometry" />
        </mxCell>
        <mxCell id="1JNQ6iAQLQbl-ibyV2LE-23" value="+ max_subscribers: int" style="text;html=1;strokeColor=none;fillColor=none;align=left;verticalAlign=top;spacingLeft=4;spacingRight=4;whiteSpace=wrap;overflow=hidden;rotatable=0;points=[[0,0.5],[1,0.5]];portConstraint=eastwest;" parent="1JNQ6iAQLQbl-ibyV2LE-4" vertex="1">
          <mxGeometry y="418" width="200" height="26" as="geometry" />
        </mxCell>
        <mxCell id="wlnrRR874YQRGgchOuz3-2" value="+ subscribers: string" style="text;html=1;strokeColor=none;fillColor=none;align=left;verticalAlign=top;spacingLeft=4;spacingRight=4;whiteSpace=wrap;overflow=hidden;rotatable=0;points=[[0,0.5],[1,0.5]];portConstraint=eastwest;" parent="1JNQ6iAQLQbl-ibyV2LE-4" vertex="1">
          <mxGeometry y="444" width="200" height="26" as="geometry" />
        </mxCell>
        <mxCell id="1JNQ6iAQLQbl-ibyV2LE-22" value="+ event_owner: string" style="text;html=1;strokeColor=none;fillColor=none;align=left;verticalAlign=top;spacingLeft=4;spacingRight=4;whiteSpace=wrap;overflow=hidden;rotatable=0;points=[[0,0.5],[1,0.5]];portConstraint=eastwest;" parent="1JNQ6iAQLQbl-ibyV2LE-4" vertex="1">
          <mxGeometry y="470" width="200" height="26" as="geometry" />
        </mxCell>
        <mxCell id="1JNQ6iAQLQbl-ibyV2LE-10" value="" style="line;html=1;strokeWidth=1;fillColor=none;align=left;verticalAlign=middle;spacingTop=-1;spacingLeft=3;spacingRight=3;rotatable=0;labelPosition=right;points=[];portConstraint=eastwest;" parent="1JNQ6iAQLQbl-ibyV2LE-4" vertex="1">
          <mxGeometry y="496" width="200" height="54" as="geometry" />
        </mxCell>
        <mxCell id="16Xd_hC0KApnLuMPDW5F-2" value="UserEventRole" style="swimlane;html=1;fontStyle=1;align=center;verticalAlign=middle;childLayout=stackLayout;horizontal=1;startSize=26;horizontalStack=0;resizeParent=1;resizeLast=0;collapsible=1;marginBottom=0;swimlaneFillColor=#ffffff;rounded=0;shadow=0;comic=0;labelBackgroundColor=none;strokeWidth=3;fillColor=#d5e8d4;fontFamily=Verdana;fontSize=14;strokeColor=#82b366;" parent="1" vertex="1">
          <mxGeometry x="560" y="-471.75" width="160" height="193.5" as="geometry" />
        </mxCell>
        <mxCell id="16Xd_hC0KApnLuMPDW5F-13" value="+ id: int" style="text;html=1;strokeColor=none;fillColor=none;align=left;verticalAlign=top;spacingLeft=4;spacingRight=4;whiteSpace=wrap;overflow=hidden;rotatable=0;points=[[0,0.5],[1,0.5]];portConstraint=eastwest;" parent="16Xd_hC0KApnLuMPDW5F-2" vertex="1">
          <mxGeometry y="26" width="160" height="26" as="geometry" />
        </mxCell>
        <mxCell id="16Xd_hC0KApnLuMPDW5F-3" value="+ user: string" style="text;html=1;strokeColor=none;fillColor=none;align=left;verticalAlign=top;spacingLeft=4;spacingRight=4;whiteSpace=wrap;overflow=hidden;rotatable=0;points=[[0,0.5],[1,0.5]];portConstraint=eastwest;" parent="16Xd_hC0KApnLuMPDW5F-2" vertex="1">
          <mxGeometry y="52" width="160" height="26" as="geometry" />
        </mxCell>
        <mxCell id="16Xd_hC0KApnLuMPDW5F-4" value="+ event: int" style="text;html=1;strokeColor=none;fillColor=none;align=left;verticalAlign=top;spacingLeft=4;spacingRight=4;whiteSpace=wrap;overflow=hidden;rotatable=0;points=[[0,0.5],[1,0.5]];portConstraint=eastwest;" parent="16Xd_hC0KApnLuMPDW5F-2" vertex="1">
          <mxGeometry y="78" width="160" height="26" as="geometry" />
        </mxCell>
        <mxCell id="16Xd_hC0KApnLuMPDW5F-5" value="+ role: string" style="text;html=1;strokeColor=none;fillColor=none;align=left;verticalAlign=top;spacingLeft=4;spacingRight=4;whiteSpace=wrap;overflow=hidden;rotatable=0;points=[[0,0.5],[1,0.5]];portConstraint=eastwest;" parent="16Xd_hC0KApnLuMPDW5F-2" vertex="1">
          <mxGeometry y="104" width="160" height="26" as="geometry" />
        </mxCell>
        <mxCell id="16Xd_hC0KApnLuMPDW5F-6" value="+ is_approved: bool" style="text;html=1;strokeColor=none;fillColor=none;align=left;verticalAlign=top;spacingLeft=4;spacingRight=4;whiteSpace=wrap;overflow=hidden;rotatable=0;points=[[0,0.5],[1,0.5]];portConstraint=eastwest;" parent="16Xd_hC0KApnLuMPDW5F-2" vertex="1">
          <mxGeometry y="130" width="160" height="26" as="geometry" />
        </mxCell>
        <mxCell id="16Xd_hC0KApnLuMPDW5F-9" value="" style="line;html=1;strokeWidth=1;fillColor=none;align=left;verticalAlign=middle;spacingTop=-1;spacingLeft=3;spacingRight=3;rotatable=0;labelPosition=right;points=[];portConstraint=eastwest;" parent="16Xd_hC0KApnLuMPDW5F-2" vertex="1">
          <mxGeometry y="156" width="160" height="8" as="geometry" />
        </mxCell>
        <mxCell id="16Xd_hC0KApnLuMPDW5F-15" value="EventFeature" style="swimlane;html=1;fontStyle=1;align=center;verticalAlign=middle;childLayout=stackLayout;horizontal=1;startSize=26;horizontalStack=0;resizeParent=1;resizeLast=0;collapsible=1;marginBottom=0;swimlaneFillColor=#ffffff;rounded=0;shadow=0;comic=0;labelBackgroundColor=none;strokeWidth=3;fillColor=#d5e8d4;fontFamily=Verdana;fontSize=14;strokeColor=#82b366;" parent="1" vertex="1">
          <mxGeometry x="300" y="-771.5" width="120" height="151.5" as="geometry" />
        </mxCell>
        <mxCell id="16Xd_hC0KApnLuMPDW5F-16" value="+ id: int" style="text;html=1;strokeColor=none;fillColor=none;align=left;verticalAlign=top;spacingLeft=4;spacingRight=4;whiteSpace=wrap;overflow=hidden;rotatable=0;points=[[0,0.5],[1,0.5]];portConstraint=eastwest;" parent="16Xd_hC0KApnLuMPDW5F-15" vertex="1">
          <mxGeometry y="26" width="120" height="26" as="geometry" />
        </mxCell>
        <mxCell id="16Xd_hC0KApnLuMPDW5F-17" value="+ event: int" style="text;html=1;strokeColor=none;fillColor=none;align=left;verticalAlign=top;spacingLeft=4;spacingRight=4;whiteSpace=wrap;overflow=hidden;rotatable=0;points=[[0,0.5],[1,0.5]];portConstraint=eastwest;" parent="16Xd_hC0KApnLuMPDW5F-15" vertex="1">
          <mxGeometry y="52" width="120" height="26" as="geometry" />
        </mxCell>
        <mxCell id="16Xd_hC0KApnLuMPDW5F-18" value="+ key: string" style="text;html=1;strokeColor=none;fillColor=none;align=left;verticalAlign=top;spacingLeft=4;spacingRight=4;whiteSpace=wrap;overflow=hidden;rotatable=0;points=[[0,0.5],[1,0.5]];portConstraint=eastwest;" parent="16Xd_hC0KApnLuMPDW5F-15" vertex="1">
          <mxGeometry y="78" width="120" height="26" as="geometry" />
        </mxCell>
        <mxCell id="16Xd_hC0KApnLuMPDW5F-19" value="+ value: string" style="text;html=1;strokeColor=none;fillColor=none;align=left;verticalAlign=top;spacingLeft=4;spacingRight=4;whiteSpace=wrap;overflow=hidden;rotatable=0;points=[[0,0.5],[1,0.5]];portConstraint=eastwest;" parent="16Xd_hC0KApnLuMPDW5F-15" vertex="1">
          <mxGeometry y="104" width="120" height="26" as="geometry" />
        </mxCell>
        <mxCell id="16Xd_hC0KApnLuMPDW5F-22" value="" style="line;html=1;strokeWidth=1;fillColor=none;align=left;verticalAlign=middle;spacingTop=-1;spacingLeft=3;spacingRight=3;rotatable=0;labelPosition=right;points=[];portConstraint=eastwest;" parent="16Xd_hC0KApnLuMPDW5F-15" vertex="1">
          <mxGeometry y="130" width="120" height="8" as="geometry" />
        </mxCell>
        <mxCell id="16Xd_hC0KApnLuMPDW5F-60" value="User" style="swimlane;html=1;fontStyle=1;align=center;verticalAlign=middle;childLayout=stackLayout;horizontal=1;startSize=26;horizontalStack=0;resizeParent=1;resizeLast=0;collapsible=1;marginBottom=0;swimlaneFillColor=#ffffff;rounded=0;shadow=0;comic=0;labelBackgroundColor=none;strokeWidth=3;fillColor=#d5e8d4;fontFamily=Verdana;fontSize=14;strokeColor=#82b366;" parent="1" vertex="1">
          <mxGeometry x="810" y="-633.5" width="160" height="213.5" as="geometry" />
        </mxCell>
        <mxCell id="16Xd_hC0KApnLuMPDW5F-61" value="+ id: int" style="text;html=1;strokeColor=none;fillColor=none;align=left;verticalAlign=top;spacingLeft=4;spacingRight=4;whiteSpace=wrap;overflow=hidden;rotatable=0;points=[[0,0.5],[1,0.5]];portConstraint=eastwest;" parent="16Xd_hC0KApnLuMPDW5F-60" vertex="1">
          <mxGeometry y="26" width="160" height="26" as="geometry" />
        </mxCell>
        <mxCell id="hfIGhS6BqL0liH2l2tpk-3" value="+ is_active: bool" style="text;html=1;strokeColor=none;fillColor=none;align=left;verticalAlign=top;spacingLeft=4;spacingRight=4;whiteSpace=wrap;overflow=hidden;rotatable=0;points=[[0,0.5],[1,0.5]];portConstraint=eastwest;" parent="16Xd_hC0KApnLuMPDW5F-60" vertex="1">
          <mxGeometry y="52" width="160" height="26" as="geometry" />
        </mxCell>
        <mxCell id="hfIGhS6BqL0liH2l2tpk-4" value="+ is_admin: bool" style="text;html=1;strokeColor=none;fillColor=none;align=left;verticalAlign=top;spacingLeft=4;spacingRight=4;whiteSpace=wrap;overflow=hidden;rotatable=0;points=[[0,0.5],[1,0.5]];portConstraint=eastwest;" parent="16Xd_hC0KApnLuMPDW5F-60" vertex="1">
          <mxGeometry y="78" width="160" height="26" as="geometry" />
        </mxCell>
        <mxCell id="16Xd_hC0KApnLuMPDW5F-68" value="+ phone_number: string" style="text;html=1;strokeColor=none;fillColor=none;align=left;verticalAlign=top;spacingLeft=4;spacingRight=4;whiteSpace=wrap;overflow=hidden;rotatable=0;points=[[0,0.5],[1,0.5]];portConstraint=eastwest;" parent="16Xd_hC0KApnLuMPDW5F-60" vertex="1">
          <mxGeometry y="104" width="160" height="26" as="geometry" />
        </mxCell>
        <mxCell id="16Xd_hC0KApnLuMPDW5F-62" value="+ e-mail: string" style="text;html=1;strokeColor=none;fillColor=none;align=left;verticalAlign=top;spacingLeft=4;spacingRight=4;whiteSpace=wrap;overflow=hidden;rotatable=0;points=[[0,0.5],[1,0.5]];portConstraint=eastwest;" parent="16Xd_hC0KApnLuMPDW5F-60" vertex="1">
          <mxGeometry y="130" width="160" height="26" as="geometry" />
        </mxCell>
        <mxCell id="16Xd_hC0KApnLuMPDW5F-67" value="+ full_name: string" style="text;html=1;strokeColor=none;fillColor=none;align=left;verticalAlign=top;spacingLeft=4;spacingRight=4;whiteSpace=wrap;overflow=hidden;rotatable=0;points=[[0,0.5],[1,0.5]];portConstraint=eastwest;" parent="16Xd_hC0KApnLuMPDW5F-60" vertex="1">
          <mxGeometry y="156" width="160" height="26" as="geometry" />
        </mxCell>
        <mxCell id="16Xd_hC0KApnLuMPDW5F-66" value="" style="line;html=1;strokeWidth=1;fillColor=none;align=left;verticalAlign=middle;spacingTop=-1;spacingLeft=3;spacingRight=3;rotatable=0;labelPosition=right;points=[];portConstraint=eastwest;" parent="16Xd_hC0KApnLuMPDW5F-60" vertex="1">
          <mxGeometry y="182" width="160" height="8" as="geometry" />
        </mxCell>
        <mxCell id="16Xd_hC0KApnLuMPDW5F-70" value="" style="endArrow=none;html=1;rounded=0;exitX=0;exitY=0.5;exitDx=0;exitDy=0;entryX=1;entryY=0.5;entryDx=0;entryDy=0;" parent="1" source="16Xd_hC0KApnLuMPDW5F-4" target="1JNQ6iAQLQbl-ibyV2LE-7" edge="1">
          <mxGeometry width="50" height="50" relative="1" as="geometry">
            <mxPoint x="510" y="-390" as="sourcePoint" />
            <mxPoint x="470" y="-300" as="targetPoint" />
            <Array as="points">
              <mxPoint x="530" y="-380" />
              <mxPoint x="530" y="-323" />
            </Array>
          </mxGeometry>
        </mxCell>
        <mxCell id="16Xd_hC0KApnLuMPDW5F-71" value="1" style="text;html=1;align=center;verticalAlign=middle;whiteSpace=wrap;rounded=0;" parent="1" vertex="1">
          <mxGeometry x="420" y="-350" width="60" height="30" as="geometry" />
        </mxCell>
        <mxCell id="16Xd_hC0KApnLuMPDW5F-72" value="N" style="text;html=1;align=center;verticalAlign=middle;whiteSpace=wrap;rounded=0;" parent="1" vertex="1">
          <mxGeometry x="520" y="-410" width="60" height="30" as="geometry" />
        </mxCell>
        <mxCell id="16Xd_hC0KApnLuMPDW5F-73" value="" style="endArrow=none;html=1;rounded=0;exitX=0;exitY=0.5;exitDx=0;exitDy=0;entryX=1;entryY=0.5;entryDx=0;entryDy=0;" parent="1" source="16Xd_hC0KApnLuMPDW5F-62" target="16Xd_hC0KApnLuMPDW5F-4" edge="1">
          <mxGeometry width="50" height="50" relative="1" as="geometry">
            <mxPoint x="760" y="-560" as="sourcePoint" />
            <mxPoint x="750" y="-370" as="targetPoint" />
            <Array as="points">
              <mxPoint x="770" y="-490" />
              <mxPoint x="770" y="-380" />
            </Array>
          </mxGeometry>
        </mxCell>
        <mxCell id="16Xd_hC0KApnLuMPDW5F-75" value="1" style="text;html=1;align=center;verticalAlign=middle;whiteSpace=wrap;rounded=0;" parent="1" vertex="1">
          <mxGeometry x="770" y="-520" width="60" height="30" as="geometry" />
        </mxCell>
        <mxCell id="16Xd_hC0KApnLuMPDW5F-84" value="" style="endArrow=none;html=1;rounded=0;entryX=0.5;entryY=1;entryDx=0;entryDy=0;" parent="1" target="16Xd_hC0KApnLuMPDW5F-15" edge="1">
          <mxGeometry width="50" height="50" relative="1" as="geometry">
            <mxPoint x="360" y="-546" as="sourcePoint" />
            <mxPoint x="730" y="-400" as="targetPoint" />
          </mxGeometry>
        </mxCell>
        <mxCell id="16Xd_hC0KApnLuMPDW5F-85" value="N" style="text;html=1;align=center;verticalAlign=middle;whiteSpace=wrap;rounded=0;" parent="1" vertex="1">
          <mxGeometry x="320" y="-620" width="60" height="30" as="geometry" />
        </mxCell>
        <mxCell id="16Xd_hC0KApnLuMPDW5F-86" value="1" style="text;html=1;align=center;verticalAlign=middle;whiteSpace=wrap;rounded=0;" parent="1" vertex="1">
          <mxGeometry x="320" y="-570" width="60" height="30" as="geometry" />
        </mxCell>
        <mxCell id="16Xd_hC0KApnLuMPDW5F-109" style="edgeStyle=orthogonalEdgeStyle;rounded=0;orthogonalLoop=1;jettySize=auto;html=1;exitX=0.5;exitY=1;exitDx=0;exitDy=0;" parent="1" edge="1">
          <mxGeometry relative="1" as="geometry">
            <mxPoint x="340" y="-80" as="sourcePoint" />
            <mxPoint x="340" y="-80" as="targetPoint" />
          </mxGeometry>
        </mxCell>
        <mxCell id="8GmvgwryK2xuMshozjX--1" value="N" style="text;html=1;align=center;verticalAlign=middle;whiteSpace=wrap;rounded=0;" parent="1" vertex="1">
          <mxGeometry x="700" y="-410" width="60" height="30" as="geometry" />
        </mxCell>
        <mxCell id="O-naPz0J4QWj3hlk5LIV-13" value="Ticket" style="swimlane;html=1;fontStyle=1;align=center;verticalAlign=middle;childLayout=stackLayout;horizontal=1;startSize=26;horizontalStack=0;resizeParent=1;resizeLast=0;collapsible=1;marginBottom=0;swimlaneFillColor=#ffffff;rounded=0;shadow=0;comic=0;labelBackgroundColor=none;strokeWidth=3;fillColor=#d5e8d4;fontFamily=Verdana;fontSize=14;strokeColor=#82b366;" parent="1" vertex="1">
          <mxGeometry x="1110" y="-599" width="200" height="290" as="geometry" />
        </mxCell>
        <mxCell id="O-naPz0J4QWj3hlk5LIV-14" value="+ id: int" style="text;html=1;strokeColor=none;fillColor=none;align=left;verticalAlign=top;spacingLeft=4;spacingRight=4;whiteSpace=wrap;overflow=hidden;rotatable=0;points=[[0,0.5],[1,0.5]];portConstraint=eastwest;" parent="O-naPz0J4QWj3hlk5LIV-13" vertex="1">
          <mxGeometry y="26" width="200" height="26" as="geometry" />
        </mxCell>
        <mxCell id="ZtrK6x8IqSy1NGGEaU3w-1" value="+ created_by: string" style="text;html=1;strokeColor=none;fillColor=none;align=left;verticalAlign=top;spacingLeft=4;spacingRight=4;whiteSpace=wrap;overflow=hidden;rotatable=0;points=[[0,0.5],[1,0.5]];portConstraint=eastwest;" parent="O-naPz0J4QWj3hlk5LIV-13" vertex="1">
          <mxGeometry y="52" width="200" height="26" as="geometry" />
        </mxCell>
        <mxCell id="O-naPz0J4QWj3hlk5LIV-29" value="+ title : string" style="text;html=1;strokeColor=none;fillColor=none;align=left;verticalAlign=top;spacingLeft=4;spacingRight=4;whiteSpace=wrap;overflow=hidden;rotatable=0;points=[[0,0.5],[1,0.5]];portConstraint=eastwest;" parent="O-naPz0J4QWj3hlk5LIV-13" vertex="1">
          <mxGeometry y="78" width="200" height="26" as="geometry" />
        </mxCell>
        <mxCell id="O-naPz0J4QWj3hlk5LIV-27" value="+ content: string" style="text;html=1;strokeColor=none;fillColor=none;align=left;verticalAlign=top;spacingLeft=4;spacingRight=4;whiteSpace=wrap;overflow=hidden;rotatable=0;points=[[0,0.5],[1,0.5]];portConstraint=eastwest;" parent="O-naPz0J4QWj3hlk5LIV-13" vertex="1">
          <mxGeometry y="104" width="200" height="26" as="geometry" />
        </mxCell>
        <mxCell id="O-naPz0J4QWj3hlk5LIV-26" value="+ department: string" style="text;html=1;strokeColor=none;fillColor=none;align=left;verticalAlign=top;spacingLeft=4;spacingRight=4;whiteSpace=wrap;overflow=hidden;rotatable=0;points=[[0,0.5],[1,0.5]];portConstraint=eastwest;" parent="O-naPz0J4QWj3hlk5LIV-13" vertex="1">
          <mxGeometry y="130" width="200" height="26" as="geometry" />
        </mxCell>
        <mxCell id="O-naPz0J4QWj3hlk5LIV-25" value="+ priority: string" style="text;html=1;strokeColor=none;fillColor=none;align=left;verticalAlign=top;spacingLeft=4;spacingRight=4;whiteSpace=wrap;overflow=hidden;rotatable=0;points=[[0,0.5],[1,0.5]];portConstraint=eastwest;" parent="O-naPz0J4QWj3hlk5LIV-13" vertex="1">
          <mxGeometry y="156" width="200" height="26" as="geometry" />
        </mxCell>
        <mxCell id="O-naPz0J4QWj3hlk5LIV-15" value="+ status: string" style="text;html=1;strokeColor=none;fillColor=none;align=left;verticalAlign=top;spacingLeft=4;spacingRight=4;whiteSpace=wrap;overflow=hidden;rotatable=0;points=[[0,0.5],[1,0.5]];portConstraint=eastwest;" parent="O-naPz0J4QWj3hlk5LIV-13" vertex="1">
          <mxGeometry y="182" width="200" height="26" as="geometry" />
        </mxCell>
        <mxCell id="O-naPz0J4QWj3hlk5LIV-28" value="+ created_at: datetime" style="text;html=1;strokeColor=none;fillColor=none;align=left;verticalAlign=top;spacingLeft=4;spacingRight=4;whiteSpace=wrap;overflow=hidden;rotatable=0;points=[[0,0.5],[1,0.5]];portConstraint=eastwest;" parent="O-naPz0J4QWj3hlk5LIV-13" vertex="1">
          <mxGeometry y="208" width="200" height="26" as="geometry" />
        </mxCell>
        <mxCell id="O-naPz0J4QWj3hlk5LIV-16" value="+ updated_at: datetime" style="text;html=1;strokeColor=none;fillColor=none;align=left;verticalAlign=top;spacingLeft=4;spacingRight=4;whiteSpace=wrap;overflow=hidden;rotatable=0;points=[[0,0.5],[1,0.5]];portConstraint=eastwest;" parent="O-naPz0J4QWj3hlk5LIV-13" vertex="1">
          <mxGeometry y="234" width="200" height="26" as="geometry" />
        </mxCell>
        <mxCell id="O-naPz0J4QWj3hlk5LIV-17" value="" style="line;html=1;strokeWidth=1;fillColor=none;align=left;verticalAlign=middle;spacingTop=-1;spacingLeft=3;spacingRight=3;rotatable=0;labelPosition=right;points=[];portConstraint=eastwest;" parent="O-naPz0J4QWj3hlk5LIV-13" vertex="1">
          <mxGeometry y="260" width="200" height="30" as="geometry" />
        </mxCell>
        <mxCell id="O-naPz0J4QWj3hlk5LIV-19" value="TicketMessage" style="swimlane;html=1;fontStyle=1;align=center;verticalAlign=middle;childLayout=stackLayout;horizontal=1;startSize=26;horizontalStack=0;resizeParent=1;resizeLast=0;collapsible=1;marginBottom=0;swimlaneFillColor=#ffffff;rounded=0;shadow=0;comic=0;labelBackgroundColor=none;strokeWidth=3;fillColor=#d5e8d4;fontFamily=Verdana;fontSize=14;strokeColor=#82b366;" parent="1" vertex="1">
          <mxGeometry x="880" y="-278.25" width="200" height="188.25" as="geometry" />
        </mxCell>
        <mxCell id="O-naPz0J4QWj3hlk5LIV-20" value="+ id: int" style="text;html=1;strokeColor=none;fillColor=none;align=left;verticalAlign=top;spacingLeft=4;spacingRight=4;whiteSpace=wrap;overflow=hidden;rotatable=0;points=[[0,0.5],[1,0.5]];portConstraint=eastwest;" parent="O-naPz0J4QWj3hlk5LIV-19" vertex="1">
          <mxGeometry y="26" width="200" height="26" as="geometry" />
        </mxCell>
        <mxCell id="O-naPz0J4QWj3hlk5LIV-31" value="+ ticket: int" style="text;html=1;strokeColor=none;fillColor=none;align=left;verticalAlign=top;spacingLeft=4;spacingRight=4;whiteSpace=wrap;overflow=hidden;rotatable=0;points=[[0,0.5],[1,0.5]];portConstraint=eastwest;" parent="O-naPz0J4QWj3hlk5LIV-19" vertex="1">
          <mxGeometry y="52" width="200" height="26" as="geometry" />
        </mxCell>
        <mxCell id="O-naPz0J4QWj3hlk5LIV-32" value="+ user: string" style="text;html=1;strokeColor=none;fillColor=none;align=left;verticalAlign=top;spacingLeft=4;spacingRight=4;whiteSpace=wrap;overflow=hidden;rotatable=0;points=[[0,0.5],[1,0.5]];portConstraint=eastwest;" parent="O-naPz0J4QWj3hlk5LIV-19" vertex="1">
          <mxGeometry y="78" width="200" height="26" as="geometry" />
        </mxCell>
        <mxCell id="O-naPz0J4QWj3hlk5LIV-21" value="+ message: string" style="text;html=1;strokeColor=none;fillColor=none;align=left;verticalAlign=top;spacingLeft=4;spacingRight=4;whiteSpace=wrap;overflow=hidden;rotatable=0;points=[[0,0.5],[1,0.5]];portConstraint=eastwest;" parent="O-naPz0J4QWj3hlk5LIV-19" vertex="1">
          <mxGeometry y="104" width="200" height="26" as="geometry" />
        </mxCell>
        <mxCell id="O-naPz0J4QWj3hlk5LIV-33" value="+ created_at: datetime" style="text;html=1;strokeColor=none;fillColor=none;align=left;verticalAlign=top;spacingLeft=4;spacingRight=4;whiteSpace=wrap;overflow=hidden;rotatable=0;points=[[0,0.5],[1,0.5]];portConstraint=eastwest;" parent="O-naPz0J4QWj3hlk5LIV-19" vertex="1">
          <mxGeometry y="130" width="200" height="26" as="geometry" />
        </mxCell>
        <mxCell id="O-naPz0J4QWj3hlk5LIV-23" value="" style="line;html=1;strokeWidth=1;fillColor=none;align=left;verticalAlign=middle;spacingTop=-1;spacingLeft=3;spacingRight=3;rotatable=0;labelPosition=right;points=[];portConstraint=eastwest;" parent="O-naPz0J4QWj3hlk5LIV-19" vertex="1">
          <mxGeometry y="156" width="200" height="8" as="geometry" />
        </mxCell>
        <mxCell id="O-naPz0J4QWj3hlk5LIV-34" value="ContactUs" style="swimlane;html=1;fontStyle=1;align=center;verticalAlign=middle;childLayout=stackLayout;horizontal=1;startSize=26;horizontalStack=0;resizeParent=1;resizeLast=0;collapsible=1;marginBottom=0;swimlaneFillColor=#ffffff;rounded=0;shadow=0;comic=0;labelBackgroundColor=none;strokeWidth=3;fillColor=#d5e8d4;fontFamily=Verdana;fontSize=14;strokeColor=#82b366;" parent="1" vertex="1">
          <mxGeometry x="560" y="-206" width="200" height="236" as="geometry" />
        </mxCell>
        <mxCell id="O-naPz0J4QWj3hlk5LIV-35" value="+ id: int" style="text;html=1;strokeColor=none;fillColor=none;align=left;verticalAlign=top;spacingLeft=4;spacingRight=4;whiteSpace=wrap;overflow=hidden;rotatable=0;points=[[0,0.5],[1,0.5]];portConstraint=eastwest;" parent="O-naPz0J4QWj3hlk5LIV-34" vertex="1">
          <mxGeometry y="26" width="200" height="26" as="geometry" />
        </mxCell>
        <mxCell id="O-naPz0J4QWj3hlk5LIV-40" value="+ frist_name: string" style="text;html=1;strokeColor=none;fillColor=none;align=left;verticalAlign=top;spacingLeft=4;spacingRight=4;whiteSpace=wrap;overflow=hidden;rotatable=0;points=[[0,0.5],[1,0.5]];portConstraint=eastwest;" parent="O-naPz0J4QWj3hlk5LIV-34" vertex="1">
          <mxGeometry y="52" width="200" height="26" as="geometry" />
        </mxCell>
        <mxCell id="O-naPz0J4QWj3hlk5LIV-42" value="+ last_name: string" style="text;html=1;strokeColor=none;fillColor=none;align=left;verticalAlign=top;spacingLeft=4;spacingRight=4;whiteSpace=wrap;overflow=hidden;rotatable=0;points=[[0,0.5],[1,0.5]];portConstraint=eastwest;" parent="O-naPz0J4QWj3hlk5LIV-34" vertex="1">
          <mxGeometry y="78" width="200" height="26" as="geometry" />
        </mxCell>
        <mxCell id="O-naPz0J4QWj3hlk5LIV-43" value="+ email: string" style="text;html=1;strokeColor=none;fillColor=none;align=left;verticalAlign=top;spacingLeft=4;spacingRight=4;whiteSpace=wrap;overflow=hidden;rotatable=0;points=[[0,0.5],[1,0.5]];portConstraint=eastwest;" parent="O-naPz0J4QWj3hlk5LIV-34" vertex="1">
          <mxGeometry y="104" width="200" height="26" as="geometry" />
        </mxCell>
        <mxCell id="O-naPz0J4QWj3hlk5LIV-41" value="+ subject: string" style="text;html=1;strokeColor=none;fillColor=none;align=left;verticalAlign=top;spacingLeft=4;spacingRight=4;whiteSpace=wrap;overflow=hidden;rotatable=0;points=[[0,0.5],[1,0.5]];portConstraint=eastwest;" parent="O-naPz0J4QWj3hlk5LIV-34" vertex="1">
          <mxGeometry y="130" width="200" height="26" as="geometry" />
        </mxCell>
        <mxCell id="O-naPz0J4QWj3hlk5LIV-36" value="+ message: string" style="text;html=1;strokeColor=none;fillColor=none;align=left;verticalAlign=top;spacingLeft=4;spacingRight=4;whiteSpace=wrap;overflow=hidden;rotatable=0;points=[[0,0.5],[1,0.5]];portConstraint=eastwest;" parent="O-naPz0J4QWj3hlk5LIV-34" vertex="1">
          <mxGeometry y="156" width="200" height="26" as="geometry" />
        </mxCell>
        <mxCell id="O-naPz0J4QWj3hlk5LIV-37" value="+ created_at: datetime" style="text;html=1;strokeColor=none;fillColor=none;align=left;verticalAlign=top;spacingLeft=4;spacingRight=4;whiteSpace=wrap;overflow=hidden;rotatable=0;points=[[0,0.5],[1,0.5]];portConstraint=eastwest;" parent="O-naPz0J4QWj3hlk5LIV-34" vertex="1">
          <mxGeometry y="182" width="200" height="26" as="geometry" />
        </mxCell>
        <mxCell id="O-naPz0J4QWj3hlk5LIV-38" value="" style="line;html=1;strokeWidth=1;fillColor=none;align=left;verticalAlign=middle;spacingTop=-1;spacingLeft=3;spacingRight=3;rotatable=0;labelPosition=right;points=[];portConstraint=eastwest;" parent="O-naPz0J4QWj3hlk5LIV-34" vertex="1">
          <mxGeometry y="208" width="200" height="8" as="geometry" />
        </mxCell>
        <mxCell id="O-naPz0J4QWj3hlk5LIV-47" value="" style="endArrow=none;html=1;rounded=0;exitX=0;exitY=0.5;exitDx=0;exitDy=0;" parent="1" source="O-naPz0J4QWj3hlk5LIV-25" edge="1">
          <mxGeometry width="50" height="50" relative="1" as="geometry">
            <mxPoint x="1100" y="-490" as="sourcePoint" />
            <mxPoint x="970" y="-542" as="targetPoint" />
            <Array as="points">
              <mxPoint x="1040" y="-430" />
              <mxPoint x="1040" y="-520" />
              <mxPoint x="1040" y="-542" />
            </Array>
          </mxGeometry>
        </mxCell>
        <mxCell id="O-naPz0J4QWj3hlk5LIV-48" value="N" style="text;html=1;align=center;verticalAlign=middle;whiteSpace=wrap;rounded=0;" parent="1" vertex="1">
          <mxGeometry x="1070" y="-455" width="60" height="30" as="geometry" />
        </mxCell>
        <mxCell id="O-naPz0J4QWj3hlk5LIV-49" value="1" style="text;html=1;align=center;verticalAlign=middle;whiteSpace=wrap;rounded=0;" parent="1" vertex="1">
          <mxGeometry x="950" y="-570" width="60" height="30" as="geometry" />
        </mxCell>
        <mxCell id="O-naPz0J4QWj3hlk5LIV-50" value="" style="endArrow=none;html=1;rounded=0;entryX=0.75;entryY=1;entryDx=0;entryDy=0;exitX=0.25;exitY=0;exitDx=0;exitDy=0;" parent="1" source="O-naPz0J4QWj3hlk5LIV-19" target="16Xd_hC0KApnLuMPDW5F-60" edge="1">
          <mxGeometry width="50" height="50" relative="1" as="geometry">
            <mxPoint x="900" y="-290" as="sourcePoint" />
            <mxPoint x="950" y="-340" as="targetPoint" />
          </mxGeometry>
        </mxCell>
        <mxCell id="O-naPz0J4QWj3hlk5LIV-52" value="1" style="text;html=1;align=center;verticalAlign=middle;whiteSpace=wrap;rounded=0;" parent="1" vertex="1">
          <mxGeometry x="890" y="-380" width="60" height="26" as="geometry" />
        </mxCell>
        <mxCell id="O-naPz0J4QWj3hlk5LIV-53" value="N" style="text;html=1;align=center;verticalAlign=middle;whiteSpace=wrap;rounded=0;" parent="1" vertex="1">
          <mxGeometry x="890" y="-308.25" width="60" height="30" as="geometry" />
        </mxCell>
        <mxCell id="O-naPz0J4QWj3hlk5LIV-54" value="" style="endArrow=none;html=1;rounded=0;entryX=0.5;entryY=1;entryDx=0;entryDy=0;exitX=1;exitY=0.5;exitDx=0;exitDy=0;" parent="1" source="O-naPz0J4QWj3hlk5LIV-21" target="O-naPz0J4QWj3hlk5LIV-13" edge="1">
          <mxGeometry width="50" height="50" relative="1" as="geometry">
            <mxPoint x="1150" y="-170" as="sourcePoint" />
            <mxPoint x="1180" y="-290" as="targetPoint" />
            <Array as="points">
              <mxPoint x="1210" y="-160" />
            </Array>
          </mxGeometry>
        </mxCell>
        <mxCell id="O-naPz0J4QWj3hlk5LIV-55" value="1" style="text;html=1;align=center;verticalAlign=middle;whiteSpace=wrap;rounded=0;" parent="1" vertex="1">
          <mxGeometry x="1170" y="-309" width="60" height="26" as="geometry" />
        </mxCell>
        <mxCell id="O-naPz0J4QWj3hlk5LIV-56" value="N" style="text;html=1;align=center;verticalAlign=middle;whiteSpace=wrap;rounded=0;" parent="1" vertex="1">
          <mxGeometry x="1060" y="-190" width="60" height="30" as="geometry" />
        </mxCell>
        <mxCell id="zpDkCe3_2rLUsq9SZKUm-5" value="FAQ" style="swimlane;html=1;fontStyle=1;align=center;verticalAlign=middle;childLayout=stackLayout;horizontal=1;startSize=26;horizontalStack=0;resizeParent=1;resizeLast=0;collapsible=1;marginBottom=0;swimlaneFillColor=#ffffff;rounded=0;shadow=0;comic=0;labelBackgroundColor=none;strokeWidth=3;fillColor=#d5e8d4;fontFamily=Verdana;fontSize=14;strokeColor=#82b366;" vertex="1" parent="1">
          <mxGeometry x="520" y="-771.5" width="200" height="216" as="geometry" />
        </mxCell>
        <mxCell id="zpDkCe3_2rLUsq9SZKUm-6" value="+ id: int" style="text;html=1;strokeColor=none;fillColor=none;align=left;verticalAlign=top;spacingLeft=4;spacingRight=4;whiteSpace=wrap;overflow=hidden;rotatable=0;points=[[0,0.5],[1,0.5]];portConstraint=eastwest;" vertex="1" parent="zpDkCe3_2rLUsq9SZKUm-5">
          <mxGeometry y="26" width="200" height="26" as="geometry" />
        </mxCell>
        <mxCell id="zpDkCe3_2rLUsq9SZKUm-7" value="+ question_title: string" style="text;html=1;strokeColor=none;fillColor=none;align=left;verticalAlign=top;spacingLeft=4;spacingRight=4;whiteSpace=wrap;overflow=hidden;rotatable=0;points=[[0,0.5],[1,0.5]];portConstraint=eastwest;" vertex="1" parent="zpDkCe3_2rLUsq9SZKUm-5">
          <mxGeometry y="52" width="200" height="26" as="geometry" />
        </mxCell>
        <mxCell id="zpDkCe3_2rLUsq9SZKUm-8" value="+ question_answer: string" style="text;html=1;strokeColor=none;fillColor=none;align=left;verticalAlign=top;spacingLeft=4;spacingRight=4;whiteSpace=wrap;overflow=hidden;rotatable=0;points=[[0,0.5],[1,0.5]];portConstraint=eastwest;" vertex="1" parent="zpDkCe3_2rLUsq9SZKUm-5">
          <mxGeometry y="78" width="200" height="26" as="geometry" />
        </mxCell>
        <mxCell id="zpDkCe3_2rLUsq9SZKUm-10" value="+ created_by: string" style="text;html=1;strokeColor=none;fillColor=none;align=left;verticalAlign=top;spacingLeft=4;spacingRight=4;whiteSpace=wrap;overflow=hidden;rotatable=0;points=[[0,0.5],[1,0.5]];portConstraint=eastwest;" vertex="1" parent="zpDkCe3_2rLUsq9SZKUm-5">
          <mxGeometry y="104" width="200" height="26" as="geometry" />
        </mxCell>
        <mxCell id="zpDkCe3_2rLUsq9SZKUm-11" value="+ created_at: datetime" style="text;html=1;strokeColor=none;fillColor=none;align=left;verticalAlign=top;spacingLeft=4;spacingRight=4;whiteSpace=wrap;overflow=hidden;rotatable=0;points=[[0,0.5],[1,0.5]];portConstraint=eastwest;" vertex="1" parent="zpDkCe3_2rLUsq9SZKUm-5">
          <mxGeometry y="130" width="200" height="26" as="geometry" />
        </mxCell>
        <mxCell id="zpDkCe3_2rLUsq9SZKUm-12" value="+ updated_at: datetime" style="text;html=1;strokeColor=none;fillColor=none;align=left;verticalAlign=top;spacingLeft=4;spacingRight=4;whiteSpace=wrap;overflow=hidden;rotatable=0;points=[[0,0.5],[1,0.5]];portConstraint=eastwest;" vertex="1" parent="zpDkCe3_2rLUsq9SZKUm-5">
          <mxGeometry y="156" width="200" height="26" as="geometry" />
        </mxCell>
        <mxCell id="zpDkCe3_2rLUsq9SZKUm-13" value="" style="line;html=1;strokeWidth=1;fillColor=none;align=left;verticalAlign=middle;spacingTop=-1;spacingLeft=3;spacingRight=3;rotatable=0;labelPosition=right;points=[];portConstraint=eastwest;" vertex="1" parent="zpDkCe3_2rLUsq9SZKUm-5">
          <mxGeometry y="182" width="200" height="8" as="geometry" />
        </mxCell>
        <mxCell id="zpDkCe3_2rLUsq9SZKUm-16" value="" style="endArrow=none;html=1;rounded=0;edgeStyle=orthogonalEdgeStyle;entryX=0.667;entryY=0;entryDx=0;entryDy=0;entryPerimeter=0;" edge="1" parent="1" source="zpDkCe3_2rLUsq9SZKUm-10" target="16Xd_hC0KApnLuMPDW5F-75">
          <mxGeometry width="50" height="50" relative="1" as="geometry">
            <mxPoint x="770" y="-690" as="sourcePoint" />
            <mxPoint x="800" y="-520" as="targetPoint" />
            <Array as="points">
              <mxPoint x="770" y="-654" />
              <mxPoint x="770" y="-520" />
            </Array>
          </mxGeometry>
        </mxCell>
        <mxCell id="zpDkCe3_2rLUsq9SZKUm-19" value="1" style="text;html=1;align=center;verticalAlign=middle;whiteSpace=wrap;rounded=0;" vertex="1" parent="1">
          <mxGeometry x="760" y="-550" width="60" height="30" as="geometry" />
        </mxCell>
        <mxCell id="zpDkCe3_2rLUsq9SZKUm-20" value="N" style="text;html=1;align=center;verticalAlign=middle;whiteSpace=wrap;rounded=0;" vertex="1" parent="1">
          <mxGeometry x="700" y="-680" width="60" height="30" as="geometry" />
        </mxCell>
      </root>
    </mxGraphModel>
  </diagram>
</mxfile>
